<svg width="959" height="50" viewBox="0 0 959 50" fill="none" xmlns="http://www.w3.org/2000/svg">
<g clip-path="url(#clip0_59_2)">
<path d="M-5 43.75V6.25H-3.27734V43.75H-5ZM-2.4297 43.7233V6.25H-1.55469V43.7233H-2.4297ZM0.167969 43.7233V6.25H1.01561V43.7233H0.167969ZM4.46092 43.7233V6.25H5.30857V43.7233H4.46092ZM7.90624 43.7233V6.25H9.60152V43.7233H7.90624ZM12.1992 43.7233V6.25H13.0468V43.7233H12.1992ZM13.9218 43.7233V6.25H14.7695V43.7233H13.9218ZM15.6445 43.7233V6.25H16.4921V43.7233H15.6445ZM19.0625 43.7233V6.25H20.7852V43.7233H19.0625ZM23.3555 43.7233V6.25H25.0782V43.7233H23.3555ZM26.8007 43.7233V6.25H28.5235V43.7233H26.8007ZM30.2461 43.7233V6.25H31.9689V43.7233H30.2461ZM32.8164 43.7233V6.25H34.5391V43.7233H32.8164ZM37.1367 43.7233V6.25H39.707V43.7233H37.1367ZM40.5547 43.7233V6.25H41.4297V43.7233H40.5547ZM42.2773 43.75V6.25H44V43.75H42.2773Z" fill="#ACAAAA" fill-opacity="0.5"/>
<path d="M195 43.75V6.25H196.723V43.75H195ZM197.57 43.7233V6.25H198.445V43.7233H197.57ZM200.168 43.7233V6.25H201.016V43.7233H200.168ZM204.461 43.7233V6.25H205.309V43.7233H204.461ZM207.906 43.7233V6.25H209.602V43.7233H207.906ZM212.199 43.7233V6.25H213.047V43.7233H212.199ZM213.922 43.7233V6.25H214.769V43.7233H213.922ZM215.645 43.7233V6.25H216.492V43.7233H215.645ZM219.063 43.7233V6.25H220.785V43.7233H219.063ZM223.355 43.7233V6.25H225.078V43.7233H223.355ZM226.801 43.7233V6.25H228.523V43.7233H226.801ZM230.246 43.7233V6.25H231.969V43.7233H230.246ZM232.816 43.7233V6.25H234.539V43.7233H232.816ZM237.137 43.7233V6.25H239.707V43.7233H237.137ZM240.555 43.7233V6.25H241.43V43.7233H240.555ZM242.277 43.75V6.25H244V43.75H242.277Z" fill="#ACAAAA" fill-opacity="0.5"/>
<path d="M395 43.75V6.25H396.723V43.75H395ZM397.57 43.7233V6.25H398.445V43.7233H397.57ZM400.168 43.7233V6.25H401.016V43.7233H400.168ZM404.461 43.7233V6.25H405.309V43.7233H404.461ZM407.906 43.7233V6.25H409.602V43.7233H407.906ZM412.199 43.7233V6.25H413.047V43.7233H412.199ZM413.922 43.7233V6.25H414.769V43.7233H413.922ZM415.645 43.7233V6.25H416.492V43.7233H415.645ZM419.063 43.7233V6.25H420.785V43.7233H419.063ZM423.355 43.7233V6.25H425.078V43.7233H423.355ZM426.801 43.7233V6.25H428.523V43.7233H426.801ZM430.246 43.7233V6.25H431.969V43.7233H430.246ZM432.816 43.7233V6.25H434.539V43.7233H432.816ZM437.137 43.7233V6.25H439.707V43.7233H437.137ZM440.555 43.7233V6.25H441.43V43.7233H440.555ZM442.277 43.75V6.25H444V43.75H442.277Z" fill="#ACAAAA" fill-opacity="0.5"/>
<path d="M588 43.75V6.25H589.723V43.75H588ZM590.57 43.7233V6.25H591.445V43.7233H590.57ZM593.168 43.7233V6.25H594.016V43.7233H593.168ZM597.461 43.7233V6.25H598.309V43.7233H597.461ZM600.906 43.7233V6.25H602.602V43.7233H600.906ZM605.199 43.7233V6.25H606.047V43.7233H605.199ZM606.922 43.7233V6.25H607.769V43.7233H606.922ZM608.645 43.7233V6.25H609.492V43.7233H608.645ZM612.063 43.7233V6.25H613.785V43.7233H612.063ZM616.355 43.7233V6.25H618.078V43.7233H616.355ZM619.801 43.7233V6.25H621.523V43.7233H619.801ZM623.246 43.7233V6.25H624.969V43.7233H623.246ZM625.816 43.7233V6.25H627.539V43.7233H625.816ZM630.137 43.7233V6.25H632.707V43.7233H630.137ZM633.555 43.7233V6.25H634.43V43.7233H633.555ZM635.277 43.75V6.25H637V43.75H635.277Z" fill="#ACAAAA" fill-opacity="0.5"/>
<path d="M776 43.75V6.25H777.723V43.75H776ZM778.57 43.7233V6.25H779.445V43.7233H778.57ZM781.168 43.7233V6.25H782.016V43.7233H781.168ZM785.461 43.7233V6.25H786.309V43.7233H785.461ZM788.906 43.7233V6.25H790.602V43.7233H788.906ZM793.199 43.7233V6.25H794.047V43.7233H793.199ZM794.922 43.7233V6.25H795.769V43.7233H794.922ZM796.645 43.7233V6.25H797.492V43.7233H796.645ZM800.063 43.7233V6.25H801.785V43.7233H800.063ZM804.355 43.7233V6.25H806.078V43.7233H804.355ZM807.801 43.7233V6.25H809.523V43.7233H807.801ZM811.246 43.7233V6.25H812.969V43.7233H811.246ZM813.816 43.7233V6.25H815.539V43.7233H813.816ZM818.137 43.7233V6.25H820.707V43.7233H818.137ZM821.555 43.7233V6.25H822.43V43.7233H821.555ZM823.277 43.75V6.25H825V43.75H823.277Z" fill="#ACAAAA" fill-opacity="0.5"/>
<path d="M95 43.75V6.25H96.7227V43.75H95ZM97.5703 43.7233V6.25H98.4453V43.7233H97.5703ZM100.168 43.7233V6.25H101.016V43.7233H100.168ZM104.461 43.7233V6.25H105.309V43.7233H104.461ZM107.906 43.7233V6.25H109.602V43.7233H107.906ZM112.199 43.7233V6.25H113.047V43.7233H112.199ZM113.922 43.7233V6.25H114.769V43.7233H113.922ZM115.645 43.7233V6.25H116.492V43.7233H115.645ZM119.063 43.7233V6.25H120.785V43.7233H119.063ZM123.355 43.7233V6.25H125.078V43.7233H123.355ZM126.801 43.7233V6.25H128.523V43.7233H126.801ZM130.246 43.7233V6.25H131.969V43.7233H130.246ZM132.816 43.7233V6.25H134.539V43.7233H132.816ZM137.137 43.7233V6.25H139.707V43.7233H137.137ZM140.555 43.7233V6.25H141.43V43.7233H140.555ZM142.277 43.75V6.25H144V43.75H142.277Z" fill="#ACAAAA" fill-opacity="0.5"/>
<path d="M295 43.75V6.25H296.723V43.75H295ZM297.57 43.7233V6.25H298.445V43.7233H297.57ZM300.168 43.7233V6.25H301.016V43.7233H300.168ZM304.461 43.7233V6.25H305.309V43.7233H304.461ZM307.906 43.7233V6.25H309.602V43.7233H307.906ZM312.199 43.7233V6.25H313.047V43.7233H312.199ZM313.922 43.7233V6.25H314.769V43.7233H313.922ZM315.645 43.7233V6.25H316.492V43.7233H315.645ZM319.063 43.7233V6.25H320.785V43.7233H319.063ZM323.355 43.7233V6.25H325.078V43.7233H323.355ZM326.801 43.7233V6.25H328.523V43.7233H326.801ZM330.246 43.7233V6.25H331.969V43.7233H330.246ZM332.816 43.7233V6.25H334.539V43.7233H332.816ZM337.137 43.7233V6.25H339.707V43.7233H337.137ZM340.555 43.7233V6.25H341.43V43.7233H340.555ZM342.277 43.75V6.25H344V43.75H342.277Z" fill="#ACAAAA" fill-opacity="0.5"/>
<path d="M495 43.75V6.25H496.723V43.75H495ZM497.57 43.7233V6.25H498.445V43.7233H497.57ZM500.168 43.7233V6.25H501.016V43.7233H500.168ZM504.461 43.7233V6.25H505.309V43.7233H504.461ZM507.906 43.7233V6.25H509.602V43.7233H507.906ZM512.199 43.7233V6.25H513.047V43.7233H512.199ZM513.922 43.7233V6.25H514.769V43.7233H513.922ZM515.645 43.7233V6.25H516.492V43.7233H515.645ZM519.063 43.7233V6.25H520.785V43.7233H519.063ZM523.355 43.7233V6.25H525.078V43.7233H523.355ZM526.801 43.7233V6.25H528.523V43.7233H526.801ZM530.246 43.7233V6.25H531.969V43.7233H530.246ZM532.816 43.7233V6.25H534.539V43.7233H532.816ZM537.137 43.7233V6.25H539.707V43.7233H537.137ZM540.555 43.7233V6.25H541.43V43.7233H540.555ZM542.277 43.75V6.25H544V43.75H542.277Z" fill="#ACAAAA" fill-opacity="0.5"/>
<path d="M688 43.75V6.25H689.723V43.75H688ZM690.57 43.7233V6.25H691.445V43.7233H690.57ZM693.168 43.7233V6.25H694.016V43.7233H693.168ZM697.461 43.7233V6.25H698.309V43.7233H697.461ZM700.906 43.7233V6.25H702.602V43.7233H700.906ZM705.199 43.7233V6.25H706.047V43.7233H705.199ZM706.922 43.7233V6.25H707.769V43.7233H706.922ZM708.645 43.7233V6.25H709.492V43.7233H708.645ZM712.063 43.7233V6.25H713.785V43.7233H712.063ZM716.355 43.7233V6.25H718.078V43.7233H716.355ZM719.801 43.7233V6.25H721.523V43.7233H719.801ZM723.246 43.7233V6.25H724.969V43.7233H723.246ZM725.816 43.7233V6.25H727.539V43.7233H725.816ZM730.137 43.7233V6.25H732.707V43.7233H730.137ZM733.555 43.7233V6.25H734.43V43.7233H733.555ZM735.277 43.75V6.25H737V43.75H735.277Z" fill="#ACAAAA" fill-opacity="0.5"/>
<path d="M876 43.75V6.25H877.723V43.75H876ZM878.57 43.7233V6.25H879.445V43.7233H878.57ZM881.168 43.7233V6.25H882.016V43.7233H881.168ZM885.461 43.7233V6.25H886.309V43.7233H885.461ZM888.906 43.7233V6.25H890.602V43.7233H888.906ZM893.199 43.7233V6.25H894.047V43.7233H893.199ZM894.922 43.7233V6.25H895.769V43.7233H894.922ZM896.645 43.7233V6.25H897.492V43.7233H896.645ZM900.063 43.7233V6.25H901.785V43.7233H900.063ZM904.355 43.7233V6.25H906.078V43.7233H904.355ZM907.801 43.7233V6.25H909.523V43.7233H907.801ZM911.246 43.7233V6.25H912.969V43.7233H911.246ZM913.816 43.7233V6.25H915.539V43.7233H913.816ZM918.137 43.7233V6.25H920.707V43.7233H918.137ZM921.555 43.7233V6.25H922.43V43.7233H921.555ZM923.277 43.75V6.25H925V43.75H923.277Z" fill="#ACAAAA" fill-opacity="0.5"/>
<path d="M45 43.5V6H46.7227V43.5H45ZM47.5703 43.4733V6H48.4453V43.4733H47.5703ZM50.168 43.4733V6H51.0156V43.4733H50.168ZM54.4609 43.4733V6H55.3086V43.4733H54.4609ZM57.9062 43.4733V6H59.6015V43.4733H57.9062ZM62.1992 43.4733V6H63.0468V43.4733H62.1992ZM63.9218 43.4733V6H64.7695V43.4733H63.9218ZM65.6445 43.4733V6H66.4921V43.4733H65.6445ZM69.0625 43.4733V6H70.7852V43.4733H69.0625ZM73.3555 43.4733V6H75.0782V43.4733H73.3555ZM76.8007 43.4733V6H78.5235V43.4733H76.8007ZM80.2461 43.4733V6H81.9689V43.4733H80.2461ZM82.8164 43.4733V6H84.5391V43.4733H82.8164ZM87.1367 43.4733V6H89.707V43.4733H87.1367ZM90.5547 43.4733V6H91.4297V43.4733H90.5547ZM92.2773 43.5V6H94V43.5H92.2773Z" fill="#ACAAAA" fill-opacity="0.5"/>
<path d="M245 43.5V6H246.723V43.5H245ZM247.57 43.4733V6H248.445V43.4733H247.57ZM250.168 43.4733V6H251.016V43.4733H250.168ZM254.461 43.4733V6H255.309V43.4733H254.461ZM257.906 43.4733V6H259.602V43.4733H257.906ZM262.199 43.4733V6H263.047V43.4733H262.199ZM263.922 43.4733V6H264.769V43.4733H263.922ZM265.645 43.4733V6H266.492V43.4733H265.645ZM269.063 43.4733V6H270.785V43.4733H269.063ZM273.355 43.4733V6H275.078V43.4733H273.355ZM276.801 43.4733V6H278.523V43.4733H276.801ZM280.246 43.4733V6H281.969V43.4733H280.246ZM282.816 43.4733V6H284.539V43.4733H282.816ZM287.137 43.4733V6H289.707V43.4733H287.137ZM290.555 43.4733V6H291.43V43.4733H290.555ZM292.277 43.5V6H294V43.5H292.277Z" fill="#ACAAAA" fill-opacity="0.5"/>
<path d="M445 43.5V6H446.723V43.5H445ZM447.57 43.4733V6H448.445V43.4733H447.57ZM450.168 43.4733V6H451.016V43.4733H450.168ZM454.461 43.4733V6H455.309V43.4733H454.461ZM457.906 43.4733V6H459.602V43.4733H457.906ZM462.199 43.4733V6H463.047V43.4733H462.199ZM463.922 43.4733V6H464.769V43.4733H463.922ZM465.645 43.4733V6H466.492V43.4733H465.645ZM469.063 43.4733V6H470.785V43.4733H469.063ZM473.355 43.4733V6H475.078V43.4733H473.355ZM476.801 43.4733V6H478.523V43.4733H476.801ZM480.246 43.4733V6H481.969V43.4733H480.246ZM482.816 43.4733V6H484.539V43.4733H482.816ZM487.137 43.4733V6H489.707V43.4733H487.137ZM490.555 43.4733V6H491.43V43.4733H490.555ZM492.277 43.5V6H494V43.5H492.277Z" fill="#ACAAAA" fill-opacity="0.5"/>
<path d="M638 43.5V6H639.723V43.5H638ZM640.57 43.4733V6H641.445V43.4733H640.57ZM643.168 43.4733V6H644.016V43.4733H643.168ZM647.461 43.4733V6H648.309V43.4733H647.461ZM650.906 43.4733V6H652.602V43.4733H650.906ZM655.199 43.4733V6H656.047V43.4733H655.199ZM656.922 43.4733V6H657.769V43.4733H656.922ZM658.645 43.4733V6H659.492V43.4733H658.645ZM662.063 43.4733V6H663.785V43.4733H662.063ZM666.355 43.4733V6H668.078V43.4733H666.355ZM669.801 43.4733V6H671.523V43.4733H669.801ZM673.246 43.4733V6H674.969V43.4733H673.246ZM675.816 43.4733V6H677.539V43.4733H675.816ZM680.137 43.4733V6H682.707V43.4733H680.137ZM683.555 43.4733V6H684.43V43.4733H683.555ZM685.277 43.5V6H687V43.5H685.277Z" fill="#ACAAAA" fill-opacity="0.5"/>
<path d="M826 43.5V6H827.723V43.5H826ZM828.57 43.4733V6H829.445V43.4733H828.57ZM831.168 43.4733V6H832.016V43.4733H831.168ZM835.461 43.4733V6H836.309V43.4733H835.461ZM838.906 43.4733V6H840.602V43.4733H838.906ZM843.199 43.4733V6H844.047V43.4733H843.199ZM844.922 43.4733V6H845.769V43.4733H844.922ZM846.645 43.4733V6H847.492V43.4733H846.645ZM850.063 43.4733V6H851.785V43.4733H850.063ZM854.355 43.4733V6H856.078V43.4733H854.355ZM857.801 43.4733V6H859.523V43.4733H857.801ZM861.246 43.4733V6H862.969V43.4733H861.246ZM863.816 43.4733V6H865.539V43.4733H863.816ZM868.137 43.4733V6H870.707V43.4733H868.137ZM871.555 43.4733V6H872.43V43.4733H871.555ZM873.277 43.5V6H875V43.5H873.277Z" fill="#ACAAAA" fill-opacity="0.5"/>
<path d="M145 43.5V6H146.723V43.5H145ZM147.57 43.4733V6H148.445V43.4733H147.57ZM150.168 43.4733V6H151.016V43.4733H150.168ZM154.461 43.4733V6H155.309V43.4733H154.461ZM157.906 43.4733V6H159.602V43.4733H157.906ZM162.199 43.4733V6H163.047V43.4733H162.199ZM163.922 43.4733V6H164.769V43.4733H163.922ZM165.645 43.4733V6H166.492V43.4733H165.645ZM169.063 43.4733V6H170.785V43.4733H169.063ZM173.355 43.4733V6H175.078V43.4733H173.355ZM176.801 43.4733V6H178.523V43.4733H176.801ZM180.246 43.4733V6H181.969V43.4733H180.246ZM182.816 43.4733V6H184.539V43.4733H182.816ZM187.137 43.4733V6H189.707V43.4733H187.137ZM190.555 43.4733V6H191.43V43.4733H190.555ZM192.277 43.5V6H194V43.5H192.277Z" fill="#ACAAAA" fill-opacity="0.5"/>
<path d="M345 43.5V6H346.723V43.5H345ZM347.57 43.4733V6H348.445V43.4733H347.57ZM350.168 43.4733V6H351.016V43.4733H350.168ZM354.461 43.4733V6H355.309V43.4733H354.461ZM357.906 43.4733V6H359.602V43.4733H357.906ZM362.199 43.4733V6H363.047V43.4733H362.199ZM363.922 43.4733V6H364.769V43.4733H363.922ZM365.645 43.4733V6H366.492V43.4733H365.645ZM369.063 43.4733V6H370.785V43.4733H369.063ZM373.355 43.4733V6H375.078V43.4733H373.355ZM376.801 43.4733V6H378.523V43.4733H376.801ZM380.246 43.4733V6H381.969V43.4733H380.246ZM382.816 43.4733V6H384.539V43.4733H382.816ZM387.137 43.4733V6H389.707V43.4733H387.137ZM390.555 43.4733V6H391.43V43.4733H390.555ZM392.277 43.5V6H394V43.5H392.277Z" fill="#ACAAAA" fill-opacity="0.5"/>
<path d="M545 43.5V6H546.723V43.5H545ZM547.57 43.4733V6H548.445V43.4733H547.57ZM550.168 43.4733V6H551.016V43.4733H550.168ZM554.461 43.4733V6H555.309V43.4733H554.461ZM557.906 43.4733V6H559.602V43.4733H557.906ZM562.199 43.4733V6H563.047V43.4733H562.199ZM563.922 43.4733V6H564.769V43.4733H563.922ZM565.645 43.4733V6H566.492V43.4733H565.645ZM569.063 43.4733V6H570.785V43.4733H569.063ZM573.355 43.4733V6H575.078V43.4733H573.355ZM576.801 43.4733V6H578.523V43.4733H576.801ZM580.246 43.4733V6H581.969V43.4733H580.246ZM582.816 43.4733V6H584.539V43.4733H582.816Z" fill="#ACAAAA" fill-opacity="0.5"/>
<path d="M738 43.5V6H739.723V43.5H738ZM740.57 43.4733V6H741.445V43.4733H740.57ZM743.168 43.4733V6H744.016V43.4733H743.168ZM747.461 43.4733V6H748.309V43.4733H747.461ZM750.906 43.4733V6H752.602V43.4733H750.906ZM755.199 43.4733V6H756.047V43.4733H755.199ZM756.922 43.4733V6H757.769V43.4733H756.922ZM758.645 43.4733V6H759.492V43.4733H758.645ZM762.063 43.4733V6H763.785V43.4733H762.063ZM766.355 43.4733V6H768.078V43.4733H766.355ZM769.801 43.4733V6H771.523V43.4733H769.801Z" fill="#ACAAAA" fill-opacity="0.5"/>
<path d="M926 43.5V6H927.723V43.5H926ZM928.57 43.4733V6H929.445V43.4733H928.57ZM931.168 43.4733V6H932.016V43.4733H931.168ZM935.461 43.4733V6H936.309V43.4733H935.461ZM938.906 43.4733V6H940.602V43.4733H938.906ZM943.199 43.4733V6H944.047V43.4733H943.199ZM944.922 43.4733V6H945.769V43.4733H944.922ZM946.645 43.4733V6H947.492V43.4733H946.645ZM950.063 43.4733V6H951.785V43.4733H950.063ZM954.355 43.4733V6H956.078V43.4733H954.355ZM957.801 43.4733V6H959.523V43.4733H957.801ZM961.246 43.4733V6H962.969V43.4733H961.246ZM963.816 43.4733V6H965.539V43.4733H963.816ZM968.137 43.4733V6H970.707V43.4733H968.137ZM971.555 43.4733V6H972.43V43.4733H971.555ZM973.277 43.5V6H975V43.5H973.277Z" fill="#ACAAAA" fill-opacity="0.5"/>
</g>
<defs>
<clipPath id="clip0_59_2">
<rect width="959" height="50" fill="white"/>
</clipPath>
</defs>
</svg>
