<svg width="19" height="23" viewBox="0 0 19 23" fill="none" xmlns="http://www.w3.org/2000/svg">
<path fill-rule="evenodd" clip-rule="evenodd" d="M6.75447 4.36574L0 3.21943L0.195359 2.15313C0.208231 2.08318 0.23529 2.01635 0.274989 1.95647C0.314688 1.89659 0.36625 1.84484 0.426726 1.80416C0.487202 1.76349 0.555408 1.73469 0.627445 1.71942C0.699481 1.70414 0.773936 1.7027 0.846555 1.71515L16.4517 4.36574H16.5505H16.4528L18.5355 4.71937C18.6082 4.73165 18.6777 4.75762 18.74 4.7958C18.8023 4.83399 18.8562 4.88363 18.8985 4.9419C18.9409 5.00016 18.9709 5.0659 18.9868 5.13534C19.0027 5.20479 19.0043 5.27658 18.9913 5.3466L18.796 6.41073L16.4494 6.01276L15.5512 20.7138C15.5177 21.2641 15.2674 21.7813 14.8513 22.1597C14.4352 22.5382 13.8848 22.7494 13.3125 22.7501H5.19609C4.62321 22.7502 4.07194 22.5394 3.65512 22.1609C3.23831 21.7823 2.98747 21.2646 2.95396 20.7138L2.05688 5.98789H16.3046L6.75447 4.36574ZM5.88546 8.69147L6.44684 18.4244H8.13096L7.68186 8.69147H5.88546ZM10.9378 8.69147L10.3765 18.4244H12.0606L12.622 8.69147H10.9378ZM7.96704 0.17952L12.3907 0.930034C12.4633 0.942432 12.5327 0.968495 12.5949 1.00673C12.657 1.04497 12.7108 1.09464 12.753 1.15289C12.7952 1.21114 12.8251 1.27683 12.841 1.34622C12.8568 1.4156 12.8583 1.48732 12.8454 1.55726L12.65 2.62139L7.12161 1.68271L7.31697 0.6175C7.32984 0.547543 7.3569 0.480716 7.3966 0.420838C7.4363 0.360959 7.48786 0.309203 7.54834 0.268528C7.60881 0.227853 7.67702 0.199056 7.74906 0.183784C7.82109 0.168511 7.89442 0.167062 7.96704 0.17952Z" fill="#ECECEC"/>
</svg>
