<svg width="33" height="33" viewBox="0 0 33 33" fill="none" xmlns="http://www.w3.org/2000/svg">
<path fill-rule="evenodd" clip-rule="evenodd" d="M9.33333 7.54167C9.33333 5.64095 10.0884 3.81808 11.4324 2.47407C12.7764 1.13006 14.5993 0.375 16.5 0.375C18.4007 0.375 20.2236 1.13006 21.5676 2.47407C22.9116 3.81808 23.6667 5.64095 23.6667 7.54167C23.6667 9.44238 22.9116 11.2653 21.5676 12.6093C20.2236 13.9533 18.4007 14.7083 16.5 14.7083C14.5993 14.7083 12.7764 13.9533 11.4324 12.6093C10.0884 11.2653 9.33333 9.44238 9.33333 7.54167ZM9.33333 18.2917C6.95744 18.2917 4.67885 19.2355 2.99884 20.9155C1.31882 22.5955 0.375 24.8741 0.375 27.25C0.375 28.6755 0.941293 30.0427 1.9493 31.0507C2.95731 32.0587 4.32446 32.625 5.75 32.625H27.25C28.6755 32.625 30.0427 32.0587 31.0507 31.0507C32.0587 30.0427 32.625 28.6755 32.625 27.25C32.625 24.8741 31.6812 22.5955 30.0012 20.9155C28.3212 19.2355 26.0426 18.2917 23.6667 18.2917H9.33333Z" fill="#B7B4B4"/>
</svg>
