<svg width="24" height="21" viewBox="0 0 24 21" fill="none" xmlns="http://www.w3.org/2000/svg">
<g filter="url(#filter0_d_76_23)">
<path d="M4 4V3C4 2.46957 4.21071 1.96086 4.58579 1.58579C4.96086 1.21071 5.46957 1 6 1H8M4 14V15C4 15.5304 4.21071 16.0391 4.58579 16.4142C4.96086 16.7893 5.46957 17 6 17H8M16 1H18C18.5304 1 19.0391 1.21071 19.4142 1.58579C19.7893 1.96086 20 2.46957 20 3V4M16 17H18C18.5304 17 19.0391 16.7893 19.4142 16.4142C19.7893 16.0391 20 15.5304 20 15V14M5 9H19" stroke="#D4D5D6" stroke-linecap="round" stroke-linejoin="round" shape-rendering="crispEdges"/>
</g>
<defs>
<filter id="filter0_d_76_23" x="-0.5" y="0.5" width="25" height="25" filterUnits="userSpaceOnUse" color-interpolation-filters="sRGB">
<feFlood flood-opacity="0" result="BackgroundImageFix"/>
<feColorMatrix in="SourceAlpha" type="matrix" values="0 0 0 0 0 0 0 0 0 0 0 0 0 0 0 0 0 0 127 0" result="hardAlpha"/>
<feOffset dy="4"/>
<feGaussianBlur stdDeviation="2"/>
<feComposite in2="hardAlpha" operator="out"/>
<feColorMatrix type="matrix" values="0 0 0 0 0 0 0 0 0 0 0 0 0 0 0 0 0 0 0.25 0"/>
<feBlend mode="normal" in2="BackgroundImageFix" result="effect1_dropShadow_76_23"/>
<feBlend mode="normal" in="SourceGraphic" in2="effect1_dropShadow_76_23" result="shape"/>
</filter>
</defs>
</svg>
